<svg width="327" height="13" viewBox="0 0 327 13" fill="none" xmlns="http://www.w3.org/2000/svg">
<path d="M163.291 0C163.563 0.199501 163.721 1.24891 163.814 1.65137L163.938 2.0332C165.806 6.65051 169.672 5.61526 170.091 6.19922L170.052 6.35254C169.44 6.59716 168.37 6.49937 167.362 6.91406C165.368 7.73527 164.459 8.83941 163.797 10.9141C163.641 11.4011 163.558 12.2439 163.372 12.6543C163.023 12.4111 162.715 10.4843 162.423 9.85547C161.566 8.00987 160.074 6.96248 158.088 6.58398C157.699 6.5099 156.715 6.558 156.509 6.27246L156.525 6.17773C157.323 5.85036 158.555 5.95696 159.644 5.40332C161.191 4.61704 162.051 3.7615 162.632 2.08984L162.753 1.75098C162.878 1.34966 163.037 0.220877 163.291 0ZM173.493 5.57324C174.257 5.40153 175.258 5.84883 176.188 5.85547C178.629 5.87274 181.074 5.86381 183.516 5.8623L315.943 5.86328L323.122 5.86621C323.844 5.86639 326.223 5.63308 326.571 6.25098C326.49 6.66635 325.916 6.6324 325.583 6.62109L184.37 6.62012C181.716 6.61758 179.06 6.60386 176.406 6.63086C175.778 6.64595 175.117 6.72237 174.509 6.87695C173.532 7.12525 172.026 6.43027 173.493 5.57324ZM152.271 5.55469C152.815 5.41398 153.711 5.64384 153.684 6.25488C153.628 7.45553 151.17 6.64547 150.459 6.6377C148.576 6.6172 146.729 6.622 144.861 6.62207L1.93262 6.62109C1.47816 6.63302 0.212757 6.77993 0 6.26953L0.0546875 6.15234C0.299961 5.96559 0.821608 5.83697 1.11719 5.84375C2.37141 5.87253 3.64523 5.86649 4.89746 5.86621L113.563 5.8623H140.391L146.408 5.86523C148.105 5.86608 150.723 6.00463 152.271 5.55469Z" fill="#E7B048"/>
</svg>
