<svg width="97" height="28" viewBox="0 0 97 28" fill="none" xmlns="http://www.w3.org/2000/svg">
<path d="M13.7695 0C14.7798 7.17975e-06 15.7788 0.0711008 16.7666 0.212891L16.7656 0.213867C17.7782 0.355918 18.7573 0.579528 19.7021 0.887695L19.7061 0.889648C21.0373 1.34614 22.0808 2.06007 22.8203 3.03906L22.958 3.21875C23.6229 4.11964 23.9319 5.07934 23.8633 6.09082V6.0918C23.7916 7.09845 23.4438 8.00823 22.8252 8.81738L22.8262 8.81836C22.238 9.61704 21.4764 10.3147 20.5459 10.9131L20.5439 10.9141C19.6433 11.4842 18.641 11.9817 17.5381 12.4072L17.5352 12.4092C16.4592 12.8095 15.3709 13.1392 14.2715 13.3984L14.2656 13.3994C13.3729 13.5878 12.4354 13.7409 11.4531 13.8584C10.6583 13.9535 9.89998 14.0234 9.17871 14.0723C10.0491 15.1808 10.9115 16.2977 11.7637 17.4248C12.7322 18.6529 13.7572 19.8116 14.8379 20.9004C15.9341 21.9821 17.1306 22.9024 18.4268 23.6611L18.4297 23.6631C19.7166 24.4392 21.1731 24.9892 22.8018 25.3105H22.8037C23.1257 25.3768 23.4598 25.4101 23.8057 25.4102C24.3671 25.4102 24.9181 25.3216 25.459 25.1436L25.4619 25.1426C26.0151 24.9675 26.4636 24.6969 26.8154 24.335C27.1449 23.996 27.3193 23.5406 27.3193 22.9424C27.3193 22.8429 27.3105 22.7429 27.291 22.6426L27.2861 22.6182V22.5928C27.2861 22.4933 27.2763 22.3934 27.2568 22.293L27.2539 22.2812L27.2178 22.2441V22.0674C27.2178 21.9369 27.2409 21.7908 27.3301 21.6729C27.4298 21.541 27.5761 21.4902 27.7188 21.4902C27.9102 21.4903 28.0772 21.5688 28.2002 21.7148C28.3143 21.8504 28.3798 22.0311 28.418 22.2275C28.4887 22.5913 28.5254 22.935 28.5254 23.2578C28.5254 23.6246 28.4897 23.9707 28.417 24.2949C28.37 24.6022 28.2995 24.889 28.2061 25.1553L28.207 25.1562C27.9753 25.8977 27.39 26.4922 26.5137 26.9551L26.5127 26.9541C25.6532 27.42 24.6692 27.6504 23.5674 27.6504C23.3317 27.6504 23.0959 27.6385 22.8604 27.6143C22.6258 27.5901 22.3806 27.5537 22.125 27.5059L22.1221 27.5049C20.5525 27.1962 19.129 26.6609 17.8535 25.8975C16.5879 25.1399 15.4473 24.2516 14.4336 23.2324C13.4498 22.2438 12.5456 21.1964 11.7217 20.0898L11.7197 20.0869C10.9238 18.9874 10.1954 17.9339 9.53516 16.9268L9.53418 16.9238C8.91797 15.962 8.34103 15.1159 7.80664 14.3828C7.34847 15.2838 6.91906 16.1342 6.51953 16.9346C6.11311 17.7709 5.81085 18.4402 5.61035 18.9443C5.43024 19.4552 5.35647 19.7743 5.35645 19.9326C5.35645 20.0689 5.3832 20.1242 5.39551 20.1406C5.39977 20.1462 5.40365 20.1489 5.40918 20.1514C5.41633 20.1545 5.43388 20.1601 5.46777 20.1602C5.6619 20.1602 5.93535 20.0194 6.28613 19.5908C6.53483 19.2884 6.76082 19.0092 6.96387 18.7539L6.96484 18.7529C7.08726 18.6018 7.21455 18.4761 7.34766 18.3955C7.48329 18.3134 7.64851 18.2648 7.82129 18.3154L7.8877 18.335L7.93555 18.3848C8.02318 18.4749 8.04395 18.5876 8.04395 18.6729C8.04391 18.7868 8.00628 18.8977 7.95801 18.9971C7.90835 19.0992 7.83845 19.2082 7.75293 19.3213L7.74316 19.333C7.61564 19.4829 7.52501 19.5862 7.48047 19.6357C7.32214 19.8684 7.10894 20.1805 6.84082 20.5713C6.58802 20.972 6.31004 21.3276 6.00879 21.6396L6.00977 21.6406C5.70573 22.0055 5.3435 22.2255 4.92383 22.2256C4.875 22.2256 4.80722 22.2151 4.74316 22.2041C4.67107 22.1917 4.57737 22.173 4.46289 22.1494L4.45703 22.1484C4.24374 22.0997 4.03085 22.0387 3.81836 21.9658L3.80859 21.9629C3.70378 21.9225 3.60595 21.8723 3.52637 21.8086C3.44635 21.7445 3.37111 21.6552 3.3418 21.5352L3.33789 21.5176L3.33594 21.499C3.28512 21.0015 3.39991 20.3418 3.65234 19.5391L3.6543 19.5352C3.93023 18.7072 4.29715 17.7993 4.75391 16.8125C5.16278 15.9292 5.58046 15.0645 6.00781 14.2188C5.79403 14.1573 5.62201 14.1025 5.49805 14.0479L5.47266 14.0371L5.45117 14.0205C5.15571 13.8077 5.00098 13.5068 5.00098 13.1426C5.00101 12.8329 5.12478 12.5595 5.34766 12.3301C5.59538 12.0752 5.94729 11.9697 6.35254 11.9697C6.49962 11.9697 6.66212 12 6.83496 12.0508C6.91315 12.0738 6.98535 12.1067 7.05371 12.1445C7.37647 11.5531 7.66767 11.0068 7.92188 10.5039L7.9248 10.4971C8.2409 9.91638 8.46294 9.47115 8.59375 9.15723L8.59863 9.14551L8.60449 9.13477C8.73696 8.88492 8.81751 8.69423 8.85547 8.55762C8.89837 8.37965 8.91401 8.26757 8.91406 8.20801C8.91406 8.09465 8.89507 8.02002 8.87207 7.97266L8.83594 7.89746L8.84961 7.81543C8.90297 7.48653 9.08205 7.07929 9.3584 6.60547L9.3623 6.59766C9.66684 6.11567 10.0403 5.63585 10.4805 5.15918C10.9265 4.67622 11.4101 4.27506 11.9316 3.95801C12.4549 3.61684 12.9672 3.43074 13.4629 3.43066C13.6453 3.43066 13.8851 3.48933 14.1611 3.58398H14.1602C14.4749 3.66149 14.7676 3.78712 15.0361 3.96289H15.0352C15.3558 4.15791 15.5643 4.44117 15.6514 4.80176C15.6821 4.89654 15.6992 4.99392 15.6992 5.09277C15.6992 5.14774 15.6915 5.23449 15.6396 5.31445C15.5751 5.41394 15.4705 5.45996 15.3682 5.45996C15.288 5.45992 15.193 5.44126 15.0986 5.41699L15.0537 5.40527L15.0156 5.37891C14.9974 5.36645 14.9845 5.35932 14.9766 5.35547C14.4515 5.36281 13.8069 5.69848 13.0361 6.46875C12.2804 7.22342 11.4974 8.2008 10.6875 9.4043L10.6865 9.40332C9.95651 10.5192 9.26734 11.6764 8.61426 12.8721C8.62622 12.8759 8.6383 12.8797 8.65039 12.8838C8.79059 12.9035 8.95427 12.915 9.14258 12.915H9.38086C9.44857 12.915 9.51711 12.9066 9.58691 12.8887L9.60547 12.8838L9.62305 12.8818C11.0597 12.7202 12.5207 12.4311 14.0049 12.0146H14.0059C15.5091 11.5992 16.9097 11.0575 18.208 10.3896C19.5018 9.72414 20.5661 8.94753 21.4043 8.0625C22.1649 7.23425 22.5224 6.40882 22.5225 5.58301C22.5225 4.97732 22.301 4.40587 21.8369 3.86328C21.3833 3.33309 20.6544 2.91037 19.6172 2.61523L19.6152 2.61426C18.9977 2.43274 18.2872 2.29514 17.4824 2.20312H17.4814C16.6993 2.11116 15.8471 2.06543 14.9258 2.06543C13.6694 2.06545 12.3774 2.16268 11.0498 2.35742L10.4785 2.44629C8.97624 2.70005 7.56562 3.09191 6.24609 3.62109L6.24219 3.62305C4.92772 4.12732 3.83308 4.76571 2.95312 5.53516C2.09074 6.28926 1.58074 7.1775 1.4082 8.2041L1.3916 8.38965C1.37142 8.80609 1.46967 9.1122 1.65527 9.33496C1.90331 9.63259 2.20256 9.86566 2.55469 10.0361C2.96101 10.1994 3.28849 10.3547 3.53027 10.5039L3.5498 10.5156L3.56641 10.5312C3.65476 10.6092 3.73161 10.6895 3.78809 10.7725C3.84319 10.8534 3.89355 10.9582 3.89355 11.0781C3.89349 11.1587 3.87516 11.2466 3.82227 11.3262C3.76893 11.4064 3.69404 11.4578 3.61719 11.4883C3.47594 11.5442 3.30682 11.5369 3.14746 11.5117L3.13965 11.5107L3.13184 11.5088C2.78012 11.4312 2.35846 11.2557 1.87305 10.9941L1.86816 10.9912C1.38378 10.7171 0.951629 10.3447 0.570312 9.87891L0.560547 9.86719C0.232815 9.41755 0.0495044 8.90847 0.00878906 8.34668L0 8.10254V7.79102L0.0078125 7.76074C0.0270343 7.68164 0.0462079 7.60253 0.0654297 7.52344C0.0649976 7.52067 0.0639865 7.5178 0.0634766 7.51465C0.0584404 7.48356 0.0501746 7.43997 0.0390625 7.38281L0.0341797 7.3584V6.95801L0.0390625 6.93457C0.184797 6.15996 0.548542 5.44065 1.11914 4.78027C1.70013 4.11089 2.35137 3.52488 3.07227 3.02246C3.80559 2.50388 4.48604 2.08803 5.11328 1.77734C6.06811 1.29684 7.18593 0.910677 8.46387 0.616211L9.02246 0.495117C10.5377 0.164784 12.1204 0 13.7695 0ZM5.09961 20.0479C5.10045 20.0555 5.1025 20.0629 5.10352 20.0703C5.1019 20.0585 5.0998 20.0466 5.09863 20.0342L5.09961 20.0479ZM30.5264 9.16309C31.5648 9.16309 32.4492 9.37435 33.1797 9.79688C33.9173 10.2122 34.4831 10.7923 34.877 11.5371C35.2708 12.2747 35.4964 13.127 35.5537 14.0938C35.5537 14.3372 35.5 14.5091 35.3926 14.6094C35.2923 14.7096 35.1204 14.7598 34.877 14.7598H27.0996C27.1497 15.8268 27.4648 16.6361 28.0449 17.1875C28.6322 17.7318 29.4593 18.0039 30.5264 18.0039C31.1852 18.0039 31.8369 17.9215 32.4814 17.7568C33.126 17.585 33.6917 17.3594 34.1787 17.0801C34.3005 17.0156 34.4115 16.9834 34.5117 16.9834C34.7624 16.9834 34.9665 17.1732 35.124 17.5527C35.1885 17.7031 35.2207 17.8392 35.2207 17.9609C35.2207 18.2474 35.0632 18.4694 34.748 18.627C34.1966 18.9062 33.5449 19.1318 32.793 19.3037C32.041 19.4756 31.2855 19.5615 30.5264 19.5615C29.445 19.5615 28.5212 19.3538 27.7549 18.9385C26.9886 18.5231 26.4049 17.9251 26.0039 17.1445C25.6029 16.3639 25.4023 15.4365 25.4023 14.3623C25.4023 13.3382 25.6208 12.4323 26.0576 11.6445C26.4945 10.8568 27.0996 10.248 27.873 9.81836C28.6465 9.38151 29.5309 9.16309 30.5264 9.16309ZM39.1914 9.39941C39.4347 9.39948 39.6068 9.45677 39.707 9.57129C39.8143 9.67874 39.8682 9.86507 39.8682 10.1299V15.8984C39.8682 16.5358 40.015 17.0407 40.3086 17.4131C40.6022 17.7854 41.0356 17.9717 41.6084 17.9717C42.217 17.9716 42.783 17.7961 43.3057 17.4453C43.8355 17.0944 44.2582 16.6109 44.5732 15.9951C44.8883 15.3793 45.0459 14.6917 45.0459 13.9326V10.8604H43.5205C43.2772 10.8604 43.1016 10.8065 42.9941 10.6992C42.8939 10.5846 42.8438 10.3949 42.8438 10.1299C42.8438 9.86491 42.8939 9.67871 42.9941 9.57129C43.1016 9.45684 43.2772 9.39941 43.5205 9.39941H45.9805C46.2238 9.39948 46.3959 9.45677 46.4961 9.57129C46.6034 9.67874 46.6572 9.86507 46.6572 10.1299V17.8643H47.5381C47.7814 17.8643 47.9535 17.9216 48.0537 18.0361C48.161 18.1436 48.2148 18.3299 48.2148 18.5947C48.2148 18.8596 48.161 19.0495 48.0537 19.1641C47.9535 19.2714 47.7814 19.3251 47.5381 19.3252H45.8301C45.5867 19.3252 45.4112 19.2714 45.3037 19.1641C45.2035 19.0566 45.1533 18.8704 45.1533 18.6055V17.3057C44.6807 18.036 44.1255 18.5947 43.4883 18.9814C42.8582 19.3681 42.1776 19.5615 41.4473 19.5615C40.7957 19.5615 40.2298 19.4218 39.75 19.1426C39.2702 18.8561 38.9014 18.4478 38.6436 17.918C38.3857 17.388 38.2568 16.7686 38.2568 16.0596V10.8604H37.376C37.1326 10.8604 36.957 10.8065 36.8496 10.6992C36.7493 10.5846 36.6992 10.3949 36.6992 10.1299C36.6992 9.86491 36.7493 9.67871 36.8496 9.57129C36.957 9.45684 37.1326 9.39941 37.376 9.39941H39.1914ZM77.1191 6.33789C77.4126 6.33789 77.6204 6.39173 77.7422 6.49902C77.8639 6.60645 77.9248 6.78548 77.9248 7.03613V10.2588H82.3398C82.5832 10.2588 82.7552 10.3162 82.8555 10.4307C82.9629 10.5381 83.0166 10.7243 83.0166 10.9893C83.0166 11.2542 82.9629 11.444 82.8555 11.5586C82.7552 11.6659 82.5832 11.7197 82.3398 11.7197H77.9248V15.6299C77.9248 16.4462 78.0645 17.0443 78.3438 17.4238C78.6302 17.8033 79.1246 17.9931 79.8262 17.9932C80.3059 17.9932 80.811 17.8964 81.3408 17.7031C81.8707 17.5098 82.3829 17.2519 82.877 16.9297C82.9771 16.8581 83.0884 16.8223 83.21 16.8223C83.4534 16.8223 83.6611 16.9871 83.833 17.3164C83.9261 17.5026 83.9727 17.6637 83.9727 17.7998C83.9727 18.029 83.8545 18.2152 83.6182 18.3584C83.0596 18.7092 82.4364 18.9994 81.749 19.2285C81.0617 19.4504 80.4205 19.5615 79.8262 19.5615C78.6089 19.5615 77.7171 19.2464 77.1514 18.6162C76.5929 17.9788 76.3135 17.0298 76.3135 15.7695V11.7197H74.1328C73.8895 11.7197 73.7138 11.666 73.6064 11.5586C73.5063 11.444 73.4561 11.2541 73.4561 10.9893C73.4561 10.7244 73.5063 10.5381 73.6064 10.4307C73.7138 10.3161 73.8895 10.2589 74.1328 10.2588H76.3135V7.03613C76.3135 6.78563 76.3745 6.60647 76.4961 6.49902C76.6178 6.39165 76.8257 6.33794 77.1191 6.33789ZM90.9834 9.16309C92.0218 9.16309 92.9062 9.37435 93.6367 9.79688C94.3743 10.2122 94.9401 10.7923 95.334 11.5371C95.7279 12.2747 95.9535 13.127 96.0107 14.0938C96.0107 14.3372 95.957 14.5091 95.8496 14.6094C95.7493 14.7096 95.5775 14.7598 95.334 14.7598H87.5566C87.6068 15.8268 87.9219 16.6361 88.502 17.1875C89.0892 17.7318 89.9163 18.0039 90.9834 18.0039C91.6423 18.0039 92.2939 17.9215 92.9385 17.7568C93.583 17.585 94.1488 17.3594 94.6357 17.0801C94.7575 17.0156 94.8685 16.9834 94.9688 16.9834C95.2194 16.9834 95.4235 17.1732 95.5811 17.5527C95.6455 17.7031 95.6777 17.8392 95.6777 17.9609C95.6777 18.2474 95.5202 18.4694 95.2051 18.627C94.6536 18.9062 94.002 19.1318 93.25 19.3037C92.498 19.4756 91.7425 19.5615 90.9834 19.5615C89.902 19.5615 88.9782 19.3538 88.2119 18.9385C87.4456 18.5231 86.862 17.9251 86.4609 17.1445C86.0599 16.3639 85.8594 15.4365 85.8594 14.3623C85.8594 13.3382 86.0778 12.4323 86.5146 11.6445C86.9515 10.8568 87.5566 10.248 88.3301 9.81836C89.1035 9.38151 89.988 9.16309 90.9834 9.16309ZM55.8262 9.16309C56.4778 9.16309 57.0437 9.30637 57.5234 9.59277C58.0032 9.87206 58.3721 10.2767 58.6299 10.8066C58.8877 11.3366 59.0166 11.9561 59.0166 12.665V17.8643H59.8975C60.1409 17.8643 60.3128 17.9216 60.4131 18.0361C60.5205 18.1436 60.5742 18.3298 60.5742 18.5947C60.5742 18.8597 60.5205 19.0495 60.4131 19.1641C60.3128 19.2714 60.1409 19.3252 59.8975 19.3252H56.417C56.1736 19.3252 55.998 19.2715 55.8906 19.1641C55.7904 19.0495 55.7402 18.8596 55.7402 18.5947C55.7402 18.3298 55.7904 18.1436 55.8906 18.0361C55.998 17.9216 56.1736 17.8643 56.417 17.8643H57.4053V12.8262C57.4053 12.1888 57.2585 11.6839 56.9648 11.3115C56.6712 10.9392 56.2379 10.7529 55.665 10.7529C55.0564 10.753 54.4869 10.9284 53.957 11.2793C53.4343 11.6302 53.0153 12.1137 52.7002 12.7295C52.3851 13.3454 52.2275 14.0329 52.2275 14.792V17.8643H53.2158C53.4592 17.8643 53.6312 17.9216 53.7314 18.0361C53.8389 18.1436 53.8926 18.3298 53.8926 18.5947C53.8926 18.8597 53.8389 19.0495 53.7314 19.1641C53.6312 19.2714 53.4592 19.3252 53.2158 19.3252H49.7354C49.492 19.3252 49.3164 19.2715 49.209 19.1641C49.1088 19.0495 49.0586 18.8596 49.0586 18.5947C49.0586 18.3298 49.1088 18.1436 49.209 18.0361C49.3164 17.9216 49.492 17.8643 49.7354 17.8643H50.6162V10.8604H49.5205C49.2771 10.8603 49.1015 10.8066 48.9941 10.6992C48.8939 10.5846 48.8438 10.3948 48.8438 10.1299C48.8438 9.86499 48.8939 9.67873 48.9941 9.57129C49.1015 9.45674 49.2771 9.39944 49.5205 9.39941H51.4434C51.6868 9.39941 51.8587 9.45677 51.959 9.57129C52.0664 9.67871 52.1201 9.86491 52.1201 10.1299V11.4189C52.5927 10.6885 53.1443 10.1299 53.7744 9.74316C54.4117 9.35648 55.0958 9.16312 55.8262 9.16309ZM67.0908 9.39941C67.3342 9.39944 67.5062 9.45674 67.6064 9.57129C67.7138 9.67873 67.7676 9.86499 67.7676 10.1299V17.8643H71.2158C71.4592 17.8643 71.6312 17.9216 71.7314 18.0361C71.8388 18.1436 71.8926 18.3298 71.8926 18.5947C71.8926 18.8596 71.8388 19.0495 71.7314 19.1641C71.6312 19.2715 71.4592 19.3252 71.2158 19.3252H62.7939C62.5505 19.3252 62.375 19.2714 62.2676 19.1641C62.1673 19.0495 62.1172 18.8597 62.1172 18.5947C62.1172 18.3298 62.1673 18.1436 62.2676 18.0361C62.375 17.9216 62.5505 17.8643 62.7939 17.8643H66.1562V10.8604H63.4385C63.1951 10.8604 63.0195 10.8066 62.9121 10.6992C62.8118 10.5846 62.7617 10.3949 62.7617 10.1299C62.7617 9.86491 62.8118 9.67871 62.9121 9.57129C63.0195 9.45677 63.1951 9.39941 63.4385 9.39941H67.0908ZM30.5264 10.7207C29.6455 10.7207 28.915 10.9463 28.335 11.3975C27.762 11.8415 27.3861 12.4609 27.207 13.2559H33.7705C33.6201 12.4323 33.2728 11.8057 32.7285 11.376C32.1914 10.9391 31.4574 10.7207 30.5264 10.7207ZM90.9834 10.7207C90.1025 10.7207 89.3721 10.9463 88.792 11.3975C88.2191 11.8415 87.8431 12.4609 87.6641 13.2559H94.2275C94.0771 12.4323 93.7298 11.8057 93.1855 11.376C92.6484 10.9391 91.9144 10.7207 90.9834 10.7207ZM10.9111 12.9678C10.9859 12.9557 11.0608 12.9434 11.1357 12.9307C11.0608 12.9435 10.9859 12.9556 10.9111 12.9678ZM12.5605 12.6484C12.6408 12.6304 12.7213 12.6126 12.8018 12.5938C12.7213 12.6125 12.6408 12.6304 12.5605 12.6484ZM1.66797 9.73438C1.6895 9.75527 1.71221 9.77481 1.73438 9.79492C1.67376 9.73982 1.61474 9.68268 1.55859 9.62207L1.66797 9.73438ZM1.23242 7.76855L1.22656 7.79395C1.23403 7.76419 1.24196 7.7346 1.25 7.70508C1.24423 7.72624 1.23789 7.74727 1.23242 7.76855ZM66.7471 4.68359C67.1408 4.68361 67.4095 4.73732 67.5527 4.84473C67.6959 4.945 67.7676 5.1241 67.7676 5.38184V6.77832C67.7676 7.03606 67.6959 7.21874 67.5527 7.32617C67.4095 7.42642 67.1408 7.47655 66.7471 7.47656C66.3533 7.47656 66.0847 7.42637 65.9414 7.32617C65.7982 7.21875 65.7266 7.03613 65.7266 6.77832V5.38184C65.7266 5.12402 65.7982 4.94499 65.9414 4.84473C66.0847 4.73737 66.3533 4.68359 66.7471 4.68359ZM22.7578 5.98242C22.7604 5.96251 22.7644 5.94279 22.7666 5.92285L22.7676 5.91211C22.7651 5.93562 22.7608 5.95894 22.7578 5.98242ZM23.6094 5.88477V5.72168C23.6092 5.71516 23.6086 5.70866 23.6084 5.70215C23.6103 5.76285 23.6105 5.82371 23.6094 5.88477ZM14.9941 5.09277C15.0167 5.09277 15.0421 5.09868 15.0703 5.11035L15.0303 5.09668L14.9941 5.09277Z" fill="#84410F"/>
</svg>
